<svg width="17" height="17" viewBox="0 0 17 17" fill="none" xmlns="http://www.w3.org/2000/svg">
<g id="&#240;&#159;&#166;&#134; icon &#34;action undo&#34;">
<path id="Vector" d="M16.6959 6.78833C16.6959 4.37916 15.2565 2.29988 13.1926 1.36524C13.1486 1.34546 13.1044 1.32609 13.06 1.30714C12.971 1.26944 12.881 1.23388 12.7899 1.20047C12.7444 1.18374 12.6986 1.16758 12.6525 1.15199C12.5604 1.12073 12.4673 1.09172 12.3733 1.06494C11.3096 0.763509 10.1831 0.763509 9.11949 1.06494C9.02545 1.09172 8.93236 1.12073 8.84023 1.15199C8.7942 1.1676 8.74841 1.18376 8.70286 1.20047C8.61178 1.23386 8.52176 1.26942 8.43279 1.30714C8.38832 1.32598 8.34412 1.34535 8.3002 1.36524C6.23625 2.29988 4.7969 4.37913 4.7969 6.78833V14.6193L1.63149 11.4539L0.885376 12.2L5.32453 16.6391L9.76369 12.2L9.01757 11.4539L5.85199 14.6194V6.78836C5.85199 4.3848 7.59352 2.38037 9.88104 1.97076C10.4534 1.86867 11.0392 1.86867 11.6115 1.97076C13.899 2.3805 15.6406 4.38493 15.6406 6.78836H16.6958L16.6959 6.78833Z" fill="black"/>
</g>
</svg>
