<svg width="37" height="36" viewBox="0 0 37 36" fill="none" xmlns="http://www.w3.org/2000/svg">
<path d="M13.9942 34.092C13.9942 33.521 13.9728 31.6419 13.9728 29.3119C13.9728 27.6829 14.5109 26.6199 15.1197 26.0786C11.2858 25.6343 7.25275 24.1369 7.25275 17.4382C7.25275 15.5311 7.92739 13.9712 9.02985 12.7503C8.85379 12.3077 8.25813 10.5306 9.20098 8.12491C9.20098 8.12491 10.6506 7.65431 13.9514 9.91518C15.3287 9.52849 16.8063 9.33268 18.2773 9.32939C19.7451 9.33271 21.2227 9.52849 22.6033 9.91518C25.9008 7.65431 27.3504 8.12491 27.3504 8.12491C28.2933 10.5306 27.7009 12.3077 27.5216 12.7503C28.6273 13.9712 29.2954 15.5295 29.2954 17.4382C29.2954 24.1517 25.2574 25.631 21.4054 26.0621C22.029 26.6051 22.5802 27.6697 22.5802 29.302C22.5802 31.6369 22.5588 33.5193 22.5588 34.092C22.5588 34.5609 22.8698 35.1023 23.7469 34.9344C30.6085 32.6209 35.5531 26.072 35.5531 18.3548C35.5531 8.70247 27.8161 0.878296 18.2741 0.878296C8.73532 0.878296 1 8.70082 1 18.3548C1 26.0753 5.94955 32.6258 12.821 34.9361C13.6799 35.0973 13.9942 34.5576 13.9942 34.092Z" stroke="#D9D9D9" stroke-width="1.5" stroke-miterlimit="10" stroke-linecap="round" stroke-linejoin="round"/>
<path d="M6.14203 25.7676C7.72332 26.2481 8.34695 26.7746 9.0907 28.0219C9.8328 29.2691 10.7033 30.6612 13.9744 29.8681" stroke="#D9D9D9" stroke-width="1.5" stroke-miterlimit="10" stroke-linecap="round" stroke-linejoin="round"/>
</svg>
