<svg width="37" height="37" viewBox="0 0 37 37" fill="none" xmlns="http://www.w3.org/2000/svg">
<path d="M33.4799 1.17468H3.07318C1.9282 1.17468 1 2.10288 1 3.24787V33.6546C1 34.7995 1.9282 35.7277 3.07318 35.7277H33.4799C34.6249 35.7277 35.5531 34.7995 35.5531 33.6546V3.24787C35.5531 2.10288 34.6249 1.17468 33.4799 1.17468Z" stroke="black" stroke-width="1.5" stroke-miterlimit="10"/>
<path d="M7.21954 14.3048H11.3659V28.8171H7.21954V14.3048Z" stroke="black" stroke-width="1.5" stroke-linecap="round" stroke-linejoin="round"/>
<path d="M9.29274 11.195C10.6286 11.195 11.7115 10.1121 11.7115 8.77632C11.7115 7.4405 10.6286 6.3576 9.29274 6.3576C7.95692 6.3576 6.87402 7.4405 6.87402 8.77632C6.87402 10.1121 7.95692 11.195 9.29274 11.195Z" stroke="black" stroke-width="1.5" stroke-linecap="round" stroke-linejoin="round"/>
<path d="M22.7684 17.7601C21.2418 17.7601 20.0042 18.5673 20.0042 20.8699V28.8171H15.8578V14.3048H20.0042V15.8321H20.0031C20.5214 15.2428 21.1595 14.7709 21.8748 14.4479C22.59 14.125 23.366 13.9584 24.1508 13.9593C27.2039 13.9593 29.6793 16.2398 29.6793 20.1788V28.8171H25.5329V20.8699C25.5329 18.5673 24.295 17.7601 22.7684 17.7601Z" stroke="black" stroke-width="1.5" stroke-linecap="round" stroke-linejoin="round"/>
</svg>
