<svg width="23" height="22" viewBox="0 0 23 22" fill="none" xmlns="http://www.w3.org/2000/svg">
<g id="&#240;&#159;&#166;&#134; icon &#34;sun&#34;">
<path id="Vector" d="M11.2546 4.03333C7.4132 4.03333 4.28796 7.15856 4.28796 11C4.28796 14.8414 7.4132 17.9667 11.2546 17.9667C15.0961 17.9667 18.2213 14.8414 18.2213 11C18.2213 7.15856 15.0961 4.03333 11.2546 4.03333ZM11.2546 16.5C10.1668 16.5 9.10346 16.1774 8.19899 15.5731C7.29452 14.9687 6.58958 14.1097 6.17329 13.1048C5.75701 12.0998 5.64809 10.9939 5.86031 9.927C6.07253 8.8601 6.59635 7.88009 7.36554 7.1109C8.13473 6.34172 9.11474 5.81789 10.1816 5.60567C11.2485 5.39345 12.3544 5.50237 13.3594 5.91865C14.3644 6.33494 15.2234 7.03989 15.8277 7.94436C16.4321 8.84883 16.7546 9.91219 16.7546 11C16.753 12.4582 16.173 13.8562 15.1419 14.8873C14.1108 15.9183 12.7128 16.4983 11.2546 16.5Z" fill="#E4BF00"/>
<path id="Vector_2" d="M11.988 0H10.5213V2.2H11.988V0Z" fill="#E4BF00"/>
<path id="Vector_3" d="M11.988 19.8H10.5213V22H11.988V19.8Z" fill="#E4BF00"/>
<path id="Vector_4" d="M22.2546 10.2667H20.0546V11.7333H22.2546V10.2667Z" fill="#E4BF00"/>
<path id="Vector_5" d="M2.45464 10.2667H0.254639V11.7333H2.45464V10.2667Z" fill="#E4BF00"/>
<path id="Vector_6" d="M18.3732 17.0814L17.3361 18.1185L18.8028 19.5852L19.8399 18.5481L18.3732 17.0814Z" fill="#E4BF00"/>
<path id="Vector_7" d="M3.70656 2.41478L2.66943 3.4519L4.13611 4.91858L5.17323 3.88145L3.70656 2.41478Z" fill="#E4BF00"/>
<path id="Vector_8" d="M4.13602 17.0815L2.66937 18.5482L3.70648 19.5853L5.17313 18.1186L4.13602 17.0815Z" fill="#E4BF00"/>
<path id="Vector_9" d="M18.8028 2.4148L17.3361 3.88147L18.3732 4.91859L19.8399 3.45192L18.8028 2.4148Z" fill="#E4BF00"/>
</g>
</svg>
