<svg width="37" height="30" viewBox="0 0 37 30" fill="none" xmlns="http://www.w3.org/2000/svg">
<path d="M34.5417 1.41672C34.5417 1.41672 32.7183 2.8872 30.1596 3.15189C30.1596 3.15189 26.1304 -1.34785 20.366 2.56371C17.7779 4.38711 17.5427 8.23987 17.9838 9.62212C17.9838 9.62212 10.1608 10.2397 3.33761 2.24022C3.33761 2.24022 0.278983 7.53403 5.33747 11.7691C5.33747 11.7691 3.84235 12.0043 2.42114 10.828C2.42114 10.828 1.74939 16.2983 7.86671 17.8276C7.86671 17.8276 7.45499 18.5334 4.98455 17.8276C4.98455 17.8276 5.39626 22.2979 11.2195 22.945C11.2195 22.945 8.07359 26.18 1 25.7683C1 25.7683 12.69 34.5325 25.3363 23.9449C32.3947 17.9453 32.1594 9.29871 32.0418 8.00469C32.0418 8.00469 34.8292 5.88716 35.5531 4.53428C35.5531 4.53428 33.3947 5.24012 31.6301 5.24012C31.6301 5.23998 33.9828 4.00475 34.5417 1.41672Z" stroke="black" stroke-width="1.5" stroke-miterlimit="10" stroke-linecap="round" stroke-linejoin="round"/>
</svg>
