<svg width="37" height="30" viewBox="0 0 37 30" fill="none" xmlns="http://www.w3.org/2000/svg">
<path d="M34.5417 1.41678C34.5417 1.41678 32.7183 2.88726 30.1596 3.15195C30.1596 3.15195 26.1304 -1.34779 20.366 2.56377C17.7779 4.38717 17.5427 8.23994 17.9838 9.62218C17.9838 9.62218 10.1608 10.2398 3.33761 2.24028C3.33761 2.24028 0.278983 7.53409 5.33747 11.7691C5.33747 11.7691 3.84235 12.0044 2.42114 10.828C2.42114 10.828 1.74939 16.2983 7.86671 17.8277C7.86671 17.8277 7.45499 18.5335 4.98455 17.8277C4.98455 17.8277 5.39626 22.298 11.2195 22.945C11.2195 22.945 8.07359 26.1801 1 25.7684C1 25.7684 12.69 34.5326 25.3363 23.945C32.3947 17.9453 32.1594 9.29877 32.0418 8.00475C32.0418 8.00475 34.8292 5.88722 35.5531 4.53434C35.5531 4.53434 33.3947 5.24018 31.6301 5.24018C31.6301 5.24004 33.9828 4.00482 34.5417 1.41678Z" stroke="#D9D9D9" stroke-width="1.5" stroke-miterlimit="10" stroke-linecap="round" stroke-linejoin="round"/>
</svg>
