<svg width="23" height="22" viewBox="0 0 23 22" fill="none" xmlns="http://www.w3.org/2000/svg">
<g id="&#240;&#159;&#166;&#134; icon &#34;moon&#34;">
<path id="Vector" d="M10.6917 22C13.7889 22 16.695 20.7996 18.8746 18.62C21.0543 16.4403 22.2547 13.5341 22.2547 10.4368C22.2552 8.30022 21.6636 6.20526 20.5455 4.38449C19.4275 2.56373 17.8269 1.08837 15.9212 0.122191C15.7251 0.0222474 15.504 -0.0177348 15.2853 0.00723553C15.0667 0.0322058 14.8602 0.121022 14.6918 0.262598C14.5233 0.404174 14.4002 0.592237 14.338 0.803311C14.2757 1.01439 14.277 1.23912 14.3417 1.44946C14.8855 3.20593 14.939 5.07761 14.4963 6.86224C14.0536 8.64688 13.1316 10.2766 11.83 11.5753C10.8959 12.5163 9.78445 13.2628 8.55993 13.7713C7.33542 14.2799 6.02219 14.5406 4.69627 14.5382C3.68195 14.5389 2.67331 14.3868 1.70434 14.0869C1.49399 14.0222 1.26923 14.0208 1.05813 14.0831C0.847027 14.1453 0.658937 14.2684 0.517345 14.4369C0.375755 14.6053 0.286936 14.8118 0.261982 15.0305C0.237026 15.2492 0.27704 15.4703 0.377028 15.6664C1.34321 17.5721 2.81857 19.1728 4.63933 20.2908C6.46009 21.4088 8.55505 22.0004 10.6917 22ZM15.9612 1.82287C17.4389 2.722 18.6597 3.98727 19.5052 5.4963C20.3508 7.00533 20.7927 8.70705 20.788 10.4368C20.788 16.004 16.2588 20.5333 10.6917 20.5333C8.96187 20.538 7.26015 20.0961 5.75111 19.2506C4.24207 18.405 2.97679 17.1843 2.07766 15.7065C2.93631 15.9052 3.81483 16.0054 4.69618 16.005C6.21478 16.0079 7.71887 15.7096 9.12139 15.1272C10.5239 14.5449 11.797 13.6902 12.867 12.6125C14.257 11.2252 15.2705 9.5065 15.8119 7.61871C16.3533 5.73092 16.4046 3.73631 15.9612 1.82315V1.82287Z" fill="#474CB4"/>
</g>
</svg>
